# xmcd
#
# Track frame offsets: 
#        150
#        13633
#        30589
#        44792
#        61417
#        80286
#        96234
#        113235
#        130694
#        153699
#        175471
#        187815
#        216744
#        234438
#        253700
#        270869
#        291382
#        310298
#        321583
#        335364
#
# Disc length: 4654 seconds
#
# Revision: 0
# Processed by: cddbd v1.5.2PL0 Copyright (c) Steve Scherf et al.
# Submitted via: ExactAudioCopyFreeDBPlugin 1.0
#
DISCID=29122c14
DTITLE=Various Artist - Absolute Acoustic Volume 2
DYEAR=2011
DGENRE=Acoustic
TTITLE0=Kent - Sverige
TTITLE1=Duffy - Warwick Avenue
TTITLE2=Regina Spektor - Samson
TTITLE3=Dido - Life For Rent
TTITLE4=John Mayer - Free Fallin'
TTITLE5=Richard Marx - Now And Forever
TTITLE6=A Camp - I Can Buy You
TTITLE7=Daniel Lemma - If I Used To Love You
TTITLE8=Coldplay - The Scientist
TTITLE9=Simon and Garfunkel - Bridge Over Troubled Water
TTITLE10=Joe Cocker - You Are So Beautiful
TTITLE11=Tom Waits - Tom Traubert's Blues
TTITLE12=Nick Cave and Kylie Minogue - Where The Wild Roses Grow
TTITLE13=Bob Dylan - Simple Twist Of Fate
TTITLE14=Elton John - Candle In The Wind
TTITLE15=Ted Gärdestad - Himelen Är Oskyldigt Blå
TTITLE16=Svante Thuresson - Rom I Regnet
TTITLE17=Veronica Maggio - Snälla Bli Min
TTITLE18=Lisa Ekdahl - Vem Vet
TTITLE19=Sara Varga - Spring För Livet
EXTD=
EXTT0=
EXTT1=
EXTT2=
EXTT3=
EXTT4=
EXTT5=
EXTT6=
EXTT7=
EXTT8=
EXTT9=
EXTT10=
EXTT11=
EXTT12=
EXTT13=
EXTT14=
EXTT15=
EXTT16=
EXTT17=
EXTT18=
EXTT19=
PLAYORDER=
